<?xml version="1.0" encoding="UTF-8" standalone="no"?><!DOCTYPE svg PUBLIC "-//W3C//DTD SVG 1.1//EN" "http://www.w3.org/Graphics/SVG/1.1/DTD/svg11.dtd"><svg width="100%" height="100%" viewBox="0 0 950 1262" version="1.1" xmlns="http://www.w3.org/2000/svg" xmlns:xlink="http://www.w3.org/1999/xlink" xml:space="preserve" xmlns:serif="http://www.serif.com/" style="fill-rule:evenodd;clip-rule:evenodd;stroke-linejoin:round;stroke-miterlimit:2;"><rect id="Artboard1" x="0" y="0" width="949.801" height="1261.6" style="fill:none;"/><g><g><g><path d="M174.366,1107.44l219.139,-501.793c-0,-0 -54.615,-26.516 -49.548,-22.23c-4.64,-14.234 -250.945,511.165 -250.945,511.165c-14.286,31.019 -42.299,112.108 -32.859,115.491c12.881,4.614 25.833,-40.45 38.216,-35.364c31.296,12.852 76.003,-67.269 76.003,-67.269l-0.006,0Z" style="fill-rule:nonzero;"/><path d="M148.833,1119.84c11.005,-19.668 21.61,-39.47 31.885,-59.381c76.013,-147.292 134.026,-300.583 203,-450.223c-0,0 -25.315,-31.734 -21.269,-27.448c-3.703,-14.234 -249.828,528.103 -249.828,528.103c-5.882,40.84 57.276,-70.934 57.276,-70.934l-21.064,79.883Z" style="fill:#c8b7b7;fill-rule:nonzero;"/><path d="M214.154,968.521l165.637,-368.706c0,-0 -15.473,-8.252 -10.402,-3.966c-4.64,-14.233 -167.438,351.983 -167.438,351.983c-20.379,61.65 -46.836,121.87 -46.836,121.87c-0,0 39.283,-53.581 59.038,-101.188l0.001,0.007Z" style="fill-rule:nonzero;"/></g><g><path d="M377.409,577.698l211.308,-261.729c0,0 -52.008,-177.848 -46.937,-173.562c-4.64,-14.234 -202.721,255.309 -253.557,406.779c-15.202,45.295 -24.265,145.032 -12.911,142.748c11.085,-2.234 102.097,-114.231 102.097,-114.231l-0,-0.005Z" style="fill-rule:nonzero;"/><path d="M740.333,624.265c6.793,4.478 13.348,11.626 14.884,18.362c-1.282,8.098 -6.871,11.857 -7.562,15.554c-0.497,2.657 3.246,5.036 4.95,10.111c0.043,11.788 1.048,14.105 -8.506,24.368c1.686,5.082 2.253,10.263 1.507,14.616c-1.209,7.05 -11.103,10.556 -12.983,13.605c0.066,-18.567 1.837,-11.706 1.252,-19.344c1.483,-10.879 -8.824,-8.036 -16.541,-8.839c-6.516,-0.627 -14.849,-0.841 -23.314,-1.945c-15.115,-5.418 -29.377,-13.086 -43.89,-19.935l4.833,-12.048l9.222,-2.395c32.523,-13.686 46.024,-27.462 76.15,-32.11l-0.002,-0Zm-4.481,17.199c-10.151,1.9 -21.363,6.008 -31.447,9.724l20.748,-2.784c4.84,0.395 9.757,1.924 13.464,3.891c1.557,-5.126 0.698,-7.528 -2.765,-10.831l-0,-0Zm-10.794,23.014l-42.355,3.804l14.436,6.692c7.061,0.851 14.683,1.114 21.731,1.793c6.751,0.65 13.166,1.519 18.745,5.958c0.023,-3.381 0.677,-6.733 -0.219,-9.476c-1.708,-5.231 -3.654,-8.207 -12.338,-8.771l-0,-0Z" style="fill-rule:nonzero;"/><path d="M490.423,697.337c44.518,51.878 70.745,102.946 135.153,151.651c12.761,-11.697 41.543,-16.312 52.57,-9.781c8.316,5.078 21.425,11.816 25.837,18.362c2.206,3.272 3.887,6.476 4.929,9.781c1.043,3.306 1.968,7.044 -0.41,11.526l-1.01,1.917c-13.247,1.644 -16.291,6.611 -27.719,1.838c6.948,-5.593 16.198,-5.704 10.937,-13.595c-3.094,-4.589 -8.297,-12.483 -14.331,-16.168c-10.701,-5.49 -16.031,-3.133 -25.852,1.791c11.615,1.767 17.882,8.041 22.228,17.534c3.121,6.97 4.585,14.136 5.063,20.231c0.912,12.145 -4.33,16.805 -11.133,17.646c-8.799,1.089 -20.208,-4.213 -24.28,-7.97c-3.143,11.545 -8.782,19.649 -8.782,19.649l-1.097,1.449l-28.002,7.705c2.718,-10.75 8.696,-13.512 17.152,-20.137c1.056,-1.527 4.22,-6.354 5.988,-14.491c1.863,-8.574 2.892,-15.076 -5.426,-26.791c-70.619,-51.742 -99.833,-110.302 -143.961,-161.726l12.146,-10.421Zm152.143,168.384c-4.744,3.475 2.542,25.129 0.734,33.95c-0.181,0.832 -0.534,1.224 -0.744,2.021l19.319,-4.586c0.1,-6.152 -1.478,-13.227 -3.729,-18.372c-3.46,-6.789 -8.18,-12.214 -15.58,-13.013l-0,0Z" style="fill-rule:nonzero;"/></g><path d="M371.072,372.294c-25.984,77.359 -33.86,186.831 3.265,268.147c19.263,42.193 83.986,66.41 104.022,92.427c15.215,19.758 37.954,21.807 50.616,21.265c17.769,-0.761 22.135,-11.929 14.455,-32.965c-10.484,-28.715 32.303,-27.603 65.39,-39.232c53.136,-18.676 24.04,7.584 57.788,-7.131c25.615,-11.168 5.394,-47.048 23.889,-68.46c37.524,-43.442 70.37,-55.548 91.587,-108.115c23.221,-57.525 25.632,-192.18 25.632,-192.18l-70.266,-46.633c-136.736,-59.151 -206.651,-111.996 -206.651,-111.996c-0,0 -134.461,149.635 -159.735,224.87l0.008,0.003Z" style="fill:url(#_Linear1);fill-rule:nonzero;"/><path d="M562.887,118.274c-0,-0 -163.309,146.115 -207.823,242.935c-21.909,47.656 -19.353,160.262 -24.16,155.483c1.97,15.034 233.907,-305.411 233.907,-305.411l-1.924,-93.007Z" style="fill:#c87137;fill-rule:nonzero;"/><path d="M453.28,356.04l87.349,-92.124c0,-0 3.314,-121.568 8.385,-117.282c-4.668,-14.229 -244.658,263.031 -241.03,415.727c0.732,30.796 18.404,90.562 18.404,90.562l33.038,-40.6l6.504,19.019l26.104,-67.952l-30.275,22.391l32.459,-50.614l-51.217,37.841l58.135,-59.463l-47.108,25.583l66.317,-64.418l-37.404,14.955l65.8,-68.977l-37.706,19.072l64.408,-70.535l-29.745,22.276l45.182,-52.132l2.134,-4.136l-39.734,20.807Z" style="fill-rule:nonzero;"/><g><path d="M638.994,340.904c67.281,11.252 124.865,-18.45 161.057,-32.319c41.911,-16.061 40.974,-79.264 30.009,-109.795c-47.338,-131.786 -110.386,-137.499 -174.437,-145.196c-85.696,0.673 -122.88,92.738 -133.841,158.98c-11.051,66.774 42.188,116.391 117.215,128.328l-0.003,0.002Z" style="fill:#fff;fill-rule:nonzero;"/><g><path d="M777.26,300.775c7.115,11.173 82.485,5.116 82.485,5.116c-0,-0 -18.579,-20.588 -25.695,-31.762c-7.115,-11.173 -22.291,-14.243 -33.897,-6.854c-11.606,7.388 -30.007,22.326 -22.892,33.5l-0.001,-0Z" style="fill-rule:nonzero;"/><path d="M523.748,179.212c-22.755,41.6 -28.148,130.941 -22.985,125.853c16.522,-8.821 91.016,-42.131 91.016,-42.131l-36.151,-14.452l36.83,-2.172l-43.877,-20.333l38.473,-6.841l-27.193,-30.362c-0,0 55.695,21.208 62.528,23.466c33.089,10.935 68.893,15.72 108.892,36.922c22.239,11.787 40.832,29.988 54.779,35.64c21.461,8.7 13.352,-13.031 13.352,-13.031c2.088,4.253 -22.603,-43.279 -44.117,-71.935c-15.388,-20.497 -36.264,-45.896 -36.264,-45.896l0.763,11.343l-42.595,-34.211l13.239,17.623l-66.485,-30.461l1.957,9.056l-49.752,-13.409l5.511,7.143l-30.993,-4.557c2.503,1.669 -19.089,48.408 -26.929,62.742l0.001,0.003Z" style="fill-rule:nonzero;"/><path d="M772.217,97.672c0,-0 24.122,44.289 42.477,85.669c10.205,23.006 0.48,67.904 7.952,80.963c11.501,20.098 18.552,-1.999 18.552,-1.999c-0,-0 9.745,-50.143 -7.247,-93.991c-32.361,-64.346 -57.433,-62.862 -61.735,-70.64l0.001,-0.002Z" style="fill-rule:nonzero;"/></g><g><path d="M664.368,243.513c-1.985,13.353 11.551,30.691 25.002,31.864c10.216,0.891 21.345,-10.412 22.893,-20.548c1.853,-12.134 -6.814,-29.074 -18.816,-31.658c-11.565,-2.489 -27.34,8.642 -29.079,20.342l-0,-0Z" style="fill-rule:nonzero;"/><path d="M656.935,245.117c0,0 23.776,-15.945 36.407,-13.255c9.828,2.093 21.664,20.957 21.664,20.957c5.268,0 -1.693,-29.336 -17.881,-33.496c-28.491,-7.321 -40.19,25.795 -40.19,25.795l0,-0.001Z" style="fill:#916f6f;fill-rule:nonzero;"/><path d="M688.166,247.154c-0.696,4.454 4.065,10.24 8.794,10.633c3.592,0.299 7.503,-3.47 8.046,-6.852c0.65,-4.047 -2.4,-9.699 -6.62,-10.563c-4.066,-0.832 -9.61,2.879 -10.22,6.782Z" style="fill:#fff;fill-rule:nonzero;"/></g></g></g></g><defs><linearGradient id="_Linear1" x1="0" y1="0" x2="1" y2="-8.52458e-06" gradientUnits="userSpaceOnUse" gradientTransform="matrix(7.11798,258.316,258.356,-7.11688,570.864,531.521)"><stop offset="0" style="stop-color:#fff;stop-opacity:1"/><stop offset="1" style="stop-color:#c87137;stop-opacity:1"/></linearGradient></defs></svg>