<?xml version="1.0" encoding="utf-8"?>
<svg viewBox="-0.0006 -0.0001 1200.0011 300.0003" xmlns="http://www.w3.org/2000/svg">
    <g style="transform-origin: 600px 150px;" transform="matrix(1.000000953674, 0, 0, 1.000000953674, 0.00000499998, -0.000001000008)">
        <path d="M 626 170 L 562 119 L 547 229 Z" style="fill: rgb(126,219,140);"/>
        <path d="M 547 229 L 635 277 L 626 170 Z" style="fill: rgb(130,212,183);"/>
        <path d="M 632 49 L 559 52 L 562 119 Z" style="fill: rgb(90,182,114);"/>
        <path d="M 562 119 L 435 183 L 547 229 Z" style="fill: rgb(119,209,142);"/>
        <path d="M 462 67 L 435 183 L 562 119 Z" style="fill: rgb(100,195,116);"/>
        <path d="M 547 229 L 536.6935483870968 300 L 602.921052631579 300 L 635 277 Z" style="fill: rgb(120,187,173);"/>
        <path d="M 435 183 L 449 250 L 547 229 Z" style="fill: rgb(115,196,174);"/>
        <path d="M 712 66 L 632 49 L 626 170 Z" style="fill: rgb(102,193,127);"/>
        <path d="M 626 170 L 632 49 L 562 119 Z" style="fill: rgb(109,205,120);"/>
        <path d="M 559 52 L 462 67 L 562 119 Z" style="fill: rgb(85,177,112);"/>
        <path d="M 635 277 L 723 238 L 626 170 Z" style="fill: rgb(129,208,193);"/>
        <path d="M 723 238 L 737 180 L 626 170 Z" style="fill: rgb(130,213,178);"/>
        <path d="M 449 250 L 464.75342465753425 300 L 490.3510638297872 300 L 547 229 Z" style="fill: rgb(112,182,172);"/>
        <path d="M 737 180 L 712 66 L 626 170 Z" style="fill: rgb(123,216,140);"/>
        <path d="M 490.3510638297872 300 L 536.6935483870968 300 L 547 229 Z" style="fill: rgb(112,175,169);"/>
        <path d="M 635 277 L 729.3 300 L 754.4492753623189 300 L 723 238 Z" style="fill: rgb(123,190,195);"/>
        <path d="M 462 67 L 371 163 L 435 183 Z" style="fill: rgb(100,195,116);"/>
        <path d="M 435 183 L 327 203 L 449 250 Z" style="fill: rgb(106,188,165);"/>
        <path d="M 464.75342465753425 300 L 449 250 L 410.38613861386136 300 Z" style="fill: rgb(101,163,165);"/>
        <path d="M 602.921052631579 300 L 638.3541666666666 300 L 635 277 Z" style="fill: rgb(123,186,173);"/>
        <path d="M 559 52 L 441 3 L 462 67 Z" style="fill: rgb(74,158,111);"/>
        <path d="M 462 67 L 326 41 L 371 163 Z" style="fill: rgb(74,164,110);"/>
        <path d="M 542.8032786885246 0 L 444.28767123287673 0 L 441 3 L 559 52 Z" style="fill: rgb(70,147,111);"/>
        <path d="M 632 0 L 596.2156862745098 0 L 559 52 L 632 49 Z" style="fill: rgb(84,164,115);"/>
        <path d="M 638.3541666666666 300 L 729.3 300 L 635 277 Z" style="fill: rgb(121,182,187);"/>
        <path d="M 843 271 L 856 178 L 737 180 Z" style="fill: rgb(127,206,211);"/>
        <path d="M 712 66 L 666.4827586206897 0 L 632 0 L 632 49 Z" style="fill: rgb(85,164,125);"/>
        <path d="M 244 171 L 327 203 L 371 163 Z" style="fill: rgb(95,182,137);"/>
        <path d="M 371 163 L 327 203 L 435 183 Z" style="fill: rgb(103,189,142);"/>
        <path d="M 596.2156862745098 0 L 542.8032786885246 0 L 559 52 Z" style="fill: rgb(78,155,113);"/>
        <path d="M 327 203 L 355.8378378378378 300 L 410.38613861386136 300 L 449 250 Z" style="fill: rgb(98,168,168);"/>
        <path d="M 825 89 L 774 4 L 712 66 Z" style="fill: rgb(90,170,146);"/>
        <path d="M 666.4827586206897 0 L 712 66 L 774 4 L 763.4814814814815 0 Z" style="fill: rgb(82,157,133);"/>
        <path d="M 825 89 L 712 66 L 737 180 Z" style="fill: rgb(112,198,149);"/>
        <path d="M 856 178 L 825 89 L 737 180 Z" style="fill: rgb(130,216,164);"/>
        <path d="M 438.54545454545456 0 L 344.5391304347826 0 L 326 41 L 441 3 Z" style="fill: rgb(54,131,107);"/>
        <path d="M 441 3 L 326 41 L 462 67 Z" style="fill: rgb(64,147,108);"/>
        <path d="M 843 271 L 737 180 L 723 238 Z" style="fill: rgb(126,203,213);"/>
        <path d="M 863.3783783783783 300 L 843 271 L 774.5277777777778 300 Z" style="fill: rgb(115,178,214);"/>
        <path d="M 754.4492753623189 300 L 774.5277777777778 300 L 843 271 L 723 238 Z" style="fill: rgb(121,188,208);"/>
        <path d="M 244 171 L 276 250 L 327 203 Z" style="fill: rgb(92,173,158);"/>
        <path d="M 355.8378378378378 300 L 327 203 L 276 250 L 323.029702970297 300 Z" style="fill: rgb(90,160,165);"/>
        <path d="M 440.60176991150445 0 L 441 3 L 444.28767123287673 0 Z" style="fill: rgb(65,141,109);"/>
        <path d="M 440.60176991150445 0 L 438.54545454545456 0 L 441 3 Z" style="fill: rgb(59,135,108);"/>
        <path d="M 305.5 0 L 298.5 0 L 270 57 L 326 41 Z" style="fill: rgb(49,130,104);"/>
        <path d="M 326 41 L 270 57 L 371 163 Z" style="fill: rgb(65,154,107);"/>
        <path d="M 344.53913043478263 0 L 305.5 0 L 326 41 Z" style="fill: rgb(48,125,105);"/>
        <path d="M 270 57 L 244 171 L 371 163 Z" style="fill: rgb(82,174,112);"/>
        <path d="M 843 271 L 925 227 L 856 178 Z" style="fill: rgb(121,200,234);"/>
        <path d="M 203.69230769230768 300 L 279.52941176470586 300 L 276 250 Z" style="fill: rgb(80,142,160);"/>
        <path d="M 323.029702970297 300 L 276 250 L 279.52941176470586 300 Z" style="fill: rgb(85,148,160);"/>
        <path d="M 782.2461538461539 0 L 775.4285714285714 0 L 774 4 Z" style="fill: rgb(77,149,155);"/>
        <path d="M 763.4814814814815 0 L 774 4 L 775.4285714285714 0 Z" style="fill: rgb(80,153,138);"/>
        <path d="M 874.2466666666667 0 L 782.2461538461539 0 L 774 4 L 825 89 Z" style="fill: rgb(79,153,157);"/>
        <path d="M 863.3783783783783 300 L 874.5308641975308 300 L 925 227 L 843 271 Z" style="fill: rgb(115,185,228);"/>
        <path d="M 856 178 L 925 67 L 825 89 Z" style="fill: rgb(111,193,170);"/>
        <path d="M 163 218 L 193 187 L 62 123 Z" style="fill: rgb(87,166,133);"/>
        <path d="M 961 157 L 925 67 L 856 178 Z" style="fill: rgb(122,202,179);"/>
        <path d="M 874.5308641975308 300 L 978.0283018867924 300 L 925 227 Z" style="fill: rgb(109,174,228);"/>
        <path d="M 270 57 L 193 187 L 244 171 Z" style="fill: rgb(84,173,113);"/>
        <path d="M 244 171 L 193 187 L 276 250 Z" style="fill: rgb(90,170,154);"/>
        <path d="M 193 187 L 270 57 L 146 24 Z" style="fill: rgb(60,144,107);"/>
        <path d="M 1023 227 L 961 157 L 925 227 Z" style="fill: rgb(122,197,220);"/>
        <path d="M 925 227 L 961 157 L 856 178 Z" style="fill: rgb(127,204,210);"/>
        <path d="M 916.1015625 0 L 874.2466666666667 0 L 825 89 L 925 67 Z" style="fill: rgb(82,158,166);"/>
        <path d="M 146.92307692307693 0 L 146 24 L 270 57 L 151.16949152542372 0 Z" style="fill: rgb(43,120,104);"/>
        <path d="M 193 187 L 163 218 L 276 250 Z" style="fill: rgb(87,165,165);"/>
        <path d="M 163 218 L 179.06185567010309 300 L 203.69230769230768 300 L 276 250 Z" style="fill: rgb(82,152,165);"/>
        <path d="M 987 35 L 958.1979166666666 0 L 916.1015625 0 L 925 67 Z" style="fill: rgb(75,148,167);"/>
        <path d="M 961 157 L 987 35 L 925 67 Z" style="fill: rgb(96,173,170);"/>
        <path d="M 1034 136 L 987 35 L 961 157 Z" style="fill: rgb(107,182,173);"/>
        <path d="M 151.16949152542372 0 L 270 57 L 298.5 0 Z" style="fill: rgb(44,121,104);"/>
        <path d="M 978.0283018867924 300 L 1008.5377358490566 300 L 1023 227 L 925 227 Z" style="fill: rgb(111,179,230);"/>
        <path d="M 1043.4516129032259 0 L 994 0 L 987 35 Z" style="fill: rgb(69,136,164);"/>
        <path d="M 958.1979166666666 0 L 987 35 L 994 0 Z" style="fill: rgb(71,141,166);"/>
        <path d="M 1023 227 L 1034 136 L 961 157 Z" style="fill: rgb(126,199,196);"/>
        <path d="M 50 238 L 156.28571428571428 300 L 179.06185567010309 300 L 163 218 Z" style="fill: rgb(78,147,165);"/>
        <path d="M 71 2 L 90 88 L 146 24 Z" style="fill: rgb(41,117,104);"/>
        <path d="M 146 24 L 90 88 L 193 187 Z" style="fill: rgb(62,145,108);"/>
        <path d="M 0 40.333333333333336 L 62 123 L 90 88 L 0 35.11340206185567 Z" style="fill: rgb(49,127,105);"/>
        <path d="M 109 0 L 71 2 L 146 24 L 146.92307692307693 0 Z" style="fill: rgb(36,109,103);"/>
        <path d="M 90 88 L 62 123 L 193 187 Z" style="fill: rgb(77,160,112);"/>
        <path d="M 62 123 L 50 238 L 163 218 Z" style="fill: rgb(84,159,146);"/>
        <path d="M 70.875 0 L 71 2 L 109 0 Z" style="fill: rgb(32,104,103);"/>
        <path d="M 0 223.16483516483515 L 0 266.8550724637681 L 24.329787234042552 300 L 29.64179104477612 300 L 50 238 Z" style="fill: rgb(71,139,164);"/>
        <path d="M 1008.5377358490566 300 L 1070.608695652174 300 L 1023 227 Z" style="fill: rgb(105,163,223);"/>
        <path d="M 1023 227 L 1117 235 L 1034 136 Z" style="fill: rgb(120,190,214);"/>
        <path d="M 1123 78 L 1096.2571428571428 0 L 1043.4516129032259 0 L 987 35 Z" style="fill: rgb(76,142,163);"/>
        <path d="M 156.28571428571428 300 L 50 238 L 51.21568627450981 300 Z" style="fill: rgb(71,130,158);"/>
        <path d="M 1070.608695652174 300 L 1090.6904761904761 300 L 1117 235 L 1023 227 Z" style="fill: rgb(108,171,227);"/>
        <path d="M 0 175.97087378640776 L 0 223.16483516483515 L 50 238 L 62 123 Z" style="fill: rgb(81,154,144);"/>
        <path d="M 51.21568627450981 300 L 50 238 L 29.64179104477612 300 Z" style="fill: rgb(68,127,158);"/>
        <path d="M 1123 78 L 987 35 L 1034 136 Z" style="fill: rgb(92,163,167);"/>
        <path d="M 1142 187 L 1123 78 L 1034 136 Z" style="fill: rgb(117,186,173);"/>
        <path d="M 71 2 L 0 28.397435897435898 L 0 35.113402061855666 L 90 88 Z" style="fill: rgb(39,114,103);"/>
        <path d="M 1200 253.07920792079207 L 1200 240.42105263157896 L 1142 187 L 1117 235 Z" style="fill: rgb(110,176,229);"/>
        <path d="M 1117 235 L 1142 187 L 1034 136 Z" style="fill: rgb(122,189,202);"/>
        <path d="M 21 0 L 0 0 L 0 28.397435897435898 L 71 2 Z" style="fill: rgb(30,101,102);"/>
        <path d="M 1171.2660550458716 300 L 1200 300 L 1200 253.07920792079207 L 1117 235 Z" style="fill: rgb(101,156,220);"/>
        <path d="M 1200 104.25 L 1169 112 L 1200 123.55454545454546 Z" style="fill: rgb(107,170,167);"/>
        <path d="M 1142 187 L 1169 112 L 1123 78 Z" style="fill: rgb(112,178,170);"/>
        <path d="M 1096.2571428571428 0 L 1123 78 L 1163.8322147651006 0 Z" style="fill: rgb(66,127,159);"/>
        <path d="M 0 40.33333333333333 L 0 118.57142857142857 L 62 123 Z" style="fill: rgb(52,129,106);"/>
        <path d="M 0 118.57142857142857 L 0 175.97087378640776 L 62 123 Z" style="fill: rgb(81,159,114);"/>
        <path d="M 70.875 0 L 21.000000000000004 0 L 71 2 Z" style="fill: rgb(29,100,102);"/>
        <path d="M 1171.2660550458716 300 L 1117 235 L 1090.6904761904761 300 Z" style="fill: rgb(100,153,219);"/>
        <path d="M 1169 112 L 1200 104.25 L 1200 88.44067796610169 L 1123 78 Z" style="fill: rgb(95,159,164);"/>
        <path d="M 1200 172.6058394160584 L 1142 187 L 1200 240.42105263157896 Z" style="fill: rgb(116,177,208);"/>
        <path d="M 1200 172.6058394160584 L 1200 123.55454545454546 L 1169 112 L 1142 187 Z" style="fill: rgb(123,186,173);"/>
        <path d="M 1200 88.4406779661017 L 1200 0 L 1163.8322147651006 0 L 1123 78 Z" style="fill: rgb(73,134,159);"/>
        <path d="M 0 300 L 24.329787234042552 300 L 0 266.8550724637681 Z" style="fill: rgb(66,127,159);"/>
    </g>
</svg>