<?xml version="1.0" encoding="utf-8"?>
<svg viewBox="-193.7786 96.7978 1200 300" xmlns="http://www.w3.org/2000/svg">
    <g transform="matrix(1, 0, 0, 1, -193.7786102294922, 96.79779815673828)">
        <path d="M 615 155 L 617 90 L 592 101 Z" style="fill: rgb(133,114,130);"/>
        <path d="M 615 155 L 634 80 L 617 90 Z" style="fill: rgb(129,119,130);"/>
        <path d="M 617 90 L 548 73 L 592 101 Z" style="fill: rgb(117,123,122);"/>
        <path d="M 615 155 L 696 145 L 634 80 Z" style="fill: rgb(138,117,138);"/>
        <path d="M 670 181 L 696 145 L 615 155 Z" style="fill: rgb(148,118,152);"/>
        <path d="M 591.7663551401869 0 L 579.6333333333333 0 L 548 73 L 617 90 Z" style="fill: rgb(132,119,130);"/>
        <path d="M 515 177 L 581 208 L 615 155 Z" style="fill: rgb(144,123,153);"/>
        <path d="M 521 125 L 615 155 L 592 101 Z" style="fill: rgb(135,111,129);"/>
        <path d="M 615 155 L 638 231 L 670 181 Z" style="fill: rgb(146,133,168);"/>
        <path d="M 548 73 L 521 125 L 592 101 Z" style="fill: rgb(119,122,123);"/>
        <path d="M 581 208 L 638 231 L 615 155 Z" style="fill: rgb(146,134,169);"/>
        <path d="M 756 244 L 785 186 L 696 145 Z" style="fill: rgb(143,152,188);"/>
        <path d="M 521 125 L 515 177 L 615 155 Z" style="fill: rgb(143,107,134);"/>
        <path d="M 579.6333333333333 0 L 571.1971830985915 0 L 521 54 L 548 73 Z" style="fill: rgb(137,118,133);"/>
        <path d="M 548 73 L 521 54 L 521 125 Z" style="fill: rgb(108,128,119);"/>
        <path d="M 521 125 L 426 171 L 515 177 Z" style="fill: rgb(136,116,135);"/>
        <path d="M 696 145 L 719 42 L 634 80 Z" style="fill: rgb(117,134,137);"/>
        <path d="M 634 80 L 595.2371134020618 0 L 591.7663551401869 0 L 617 90 Z" style="fill: rgb(132,121,132);"/>
        <path d="M 638 231 L 680 242 L 670 181 Z" style="fill: rgb(142,156,192);"/>
        <path d="M 696 145 L 760 102 L 719 42 Z" style="fill: rgb(120,139,145);"/>
        <path d="M 507 262 L 590 258 L 581 208 Z" style="fill: rgb(135,147,181);"/>
        <path d="M 581 208 L 590 258 L 638 231 Z" style="fill: rgb(142,148,185);"/>
        <path d="M 638 231 L 660 299 L 680 242 Z" style="fill: rgb(135,148,191);"/>
        <path d="M 634.695652173913 0 L 595.2371134020618 0 L 634 80 Z" style="fill: rgb(162,107,148);"/>
        <path d="M 785 186 L 760 102 L 696 145 Z" style="fill: rgb(145,127,158);"/>
        <path d="M 760 102 L 753 59 L 719 42 Z" style="fill: rgb(113,146,147);"/>
        <path d="M 571.1971830985915 0 L 529.0454545454545 0 L 512 5 L 521 54 Z" style="fill: rgb(152,111,141);"/>
        <path d="M 521 54 L 447 96 L 521 125 Z" style="fill: rgb(107,128,118);"/>
        <path d="M 709.2682926829268 0 L 673.1818181818181 0 L 719 42 Z" style="fill: rgb(169,114,163);"/>
        <path d="M 719 42 L 673.1818181818181 0 L 634.695652173913 0 L 634 80 Z" style="fill: rgb(148,121,148);"/>
        <path d="M 529.0454545454545 0 L 511.5 0 L 512 5 Z" style="fill: rgb(161,106,146);"/>
        <path d="M 411 27 L 447 96 L 521 54 Z" style="fill: rgb(107,131,119);"/>
        <path d="M 426 171 L 507 262 L 515 177 Z" style="fill: rgb(130,145,165);"/>
        <path d="M 515 177 L 507 262 L 581 208 Z" style="fill: rgb(135,149,176);"/>
        <path d="M 756 244 L 696 145 L 670 181 Z" style="fill: rgb(144,145,180);"/>
        <path d="M 790.7113402061856 0 L 754.4047619047619 0 L 753 59 Z" style="fill: rgb(169,129,178);"/>
        <path d="M 590 258 L 660 299 L 638 231 Z" style="fill: rgb(136,142,185);"/>
        <path d="M 680 242 L 756 244 L 670 181 Z" style="fill: rgb(138,165,202);"/>
        <path d="M 561.1764705882352 300 L 649.5 300 L 660 299 L 590 258 Z" style="fill: rgb(133,128,177);"/>
        <path d="M 741.5671641791045 0 L 709.2682926829268 0 L 719 42 Z" style="fill: rgb(169,121,170);"/>
        <path d="M 692.3030303030303 300 L 701.75 300 L 756 244 L 680 242 Z" style="fill: rgb(131,154,199);"/>
        <path d="M 507 262 L 545.8085106382979 300 L 561.1764705882352 300 L 590 258 Z" style="fill: rgb(128,136,176);"/>
        <path d="M 447 96 L 426 171 L 521 125 Z" style="fill: rgb(124,119,125);"/>
        <path d="M 660.021052631579 300 L 663.7777777777778 300 L 660 299 Z" style="fill: rgb(128,136,187);"/>
        <path d="M 660 299 L 663.7777777777778 300 L 692.3030303030303 300 L 680 242 Z" style="fill: rgb(130,143,191);"/>
        <path d="M 822 110 L 753 59 L 760 102 Z" style="fill: rgb(114,149,153);"/>
        <path d="M 753 59 L 754.4047619047619 0 L 741.5671641791045 0 L 719 42 Z" style="fill: rgb(150,133,163);"/>
        <path d="M 785 186 L 822 110 L 760 102 Z" style="fill: rgb(138,138,163);"/>
        <path d="M 447 96 L 398 170 L 426 171 Z" style="fill: rgb(126,118,126);"/>
        <path d="M 421 255 L 465.1509433962264 300 L 478.9130434782609 300 L 507 262 Z" style="fill: rgb(116,143,172);"/>
        <path d="M 545.8085106382979 300 L 507 262 L 478.9130434782609 300 Z" style="fill: rgb(120,134,171);"/>
        <path d="M 472.7692307692308 0 L 410.22857142857146 0 L 411 27 L 512 5 Z" style="fill: rgb(146,117,138);"/>
        <path d="M 512 5 L 411 27 L 521 54 Z" style="fill: rgb(135,121,132);"/>
        <path d="M 447 96 L 351 94 L 398 170 Z" style="fill: rgb(109,127,119);"/>
        <path d="M 421 255 L 507 262 L 426 171 Z" style="fill: rgb(120,160,177);"/>
        <path d="M 398 170 L 421 255 L 426 171 Z" style="fill: rgb(121,147,158);"/>
        <path d="M 410.22857142857146 0 L 406.2352941176471 0 L 394 26 L 411 27 Z" style="fill: rgb(136,123,134);"/>
        <path d="M 411 27 L 394 26 L 447 96 Z" style="fill: rgb(109,132,121);"/>
        <path d="M 505.38235294117646 0 L 472.7692307692308 0 L 512 5 Z" style="fill: rgb(152,114,142);"/>
        <path d="M 850 253 L 849 208 L 785 186 Z" style="fill: rgb(131,181,219);"/>
        <path d="M 785 186 L 849 208 L 822 110 Z" style="fill: rgb(144,149,184);"/>
        <path d="M 850 253 L 785 186 L 756 244 Z" style="fill: rgb(130,181,220);"/>
        <path d="M 892 42 L 855 38 L 909 101 Z" style="fill: rgb(111,166,174);"/>
        <path d="M 822 110 L 855 38 L 753 59 Z" style="fill: rgb(107,156,157);"/>
        <path d="M 855 38 L 835 0 L 790.7113402061856 0 L 753 59 Z" style="fill: rgb(153,142,176);"/>
        <path d="M 701.75 300 L 781.9710144927536 300 L 756 244 Z" style="fill: rgb(125,152,202);"/>
        <path d="M 660.021052631579 300 L 660 299 L 649.5 300 Z" style="fill: rgb(130,128,179);"/>
        <path d="M 321 59 L 351 94 L 394 26 Z" style="fill: rgb(89,138,114);"/>
        <path d="M 394 26 L 351 94 L 447 96 Z" style="fill: rgb(83,138,111);"/>
        <path d="M 398 170 L 362 262 L 421 255 Z" style="fill: rgb(110,164,175);"/>
        <path d="M 781.9710144927536 300 L 801.4333333333333 300 L 850 253 L 756 244 Z" style="fill: rgb(124,167,214);"/>
        <path d="M 849 208 L 885 171 L 822 110 Z" style="fill: rgb(143,151,186);"/>
        <path d="M 511.5 0 L 505.38235294117646 0 L 512 5 Z" style="fill: rgb(155,111,143);"/>
        <path d="M 406.2352941176471 0 L 390.94117647058823 0 L 394 26 Z" style="fill: rgb(146,119,139);"/>
        <path d="M 897 255 L 885 171 L 849 208 Z" style="fill: rgb(128,186,225);"/>
        <path d="M 909 101 L 855 38 L 822 110 Z" style="fill: rgb(102,164,165);"/>
        <path d="M 835 0 L 855 38 L 865.26 0 Z" style="fill: rgb(168,142,192);"/>
        <path d="M 374 287 L 387.44827586206895 300 L 427.5 300 L 421 255 Z" style="fill: rgb(104,140,166);"/>
        <path d="M 465.1509433962264 300 L 421 255 L 427.5 300 Z" style="fill: rgb(109,137,167);"/>
        <path d="M 317 253 L 362 262 L 292 199 Z" style="fill: rgb(95,166,170);"/>
        <path d="M 362 262 L 374 287 L 421 255 Z" style="fill: rgb(104,151,169);"/>
        <path d="M 885 171 L 909 101 L 822 110 Z" style="fill: rgb(131,153,176);"/>
        <path d="M 308 5 L 321 59 L 394 26 Z" style="fill: rgb(115,132,125);"/>
        <path d="M 351 94 L 306 112 L 398 170 Z" style="fill: rgb(106,129,118);"/>
        <path d="M 801.4333333333333 300 L 852.1609195402299 300 L 850 253 Z" style="fill: rgb(116,161,215);"/>
        <path d="M 850 253 L 897 255 L 849 208 Z" style="fill: rgb(121,188,231);"/>
        <path d="M 852.1609195402299 300 L 874.2352941176471 300 L 897 255 L 850 253 Z" style="fill: rgb(115,173,224);"/>
        <path d="M 885 171 L 949 98 L 909 101 Z" style="fill: rgb(127,157,180);"/>
        <path d="M 321 59 L 306 112 L 351 94 Z" style="fill: rgb(76,140,109);"/>
        <path d="M 906.5111111111111 0 L 865.26 0 L 855 38 Z" style="fill: rgb(167,148,197);"/>
        <path d="M 912.5714285714286 0 L 906.5111111111111 0 L 855 38 L 892 42 Z" style="fill: rgb(146,156,188);"/>
        <path d="M 978 34 L 926.5853658536586 0 L 912.5714285714286 0 L 892 42 Z" style="fill: rgb(146,155,190);"/>
        <path d="M 362 262 L 333.5 300 L 351.35483870967744 300 L 374 287 Z" style="fill: rgb(95,147,164);"/>
        <path d="M 387.44827586206895 300 L 374 287 L 372.05 300 Z" style="fill: rgb(100,140,164);"/>
        <path d="M 292 199 L 362 262 L 398 170 Z" style="fill: rgb(107,159,163);"/>
        <path d="M 236 21 L 263 131 L 306 112 Z" style="fill: rgb(80,140,111);"/>
        <path d="M 390.94117647058823 0 L 321.3333333333333 0 L 308 5 L 394 26 Z" style="fill: rgb(141,122,137);"/>
        <path d="M 310.1808510638298 0 L 308 5 L 321.3333333333333 0 Z" style="fill: rgb(141,123,137);"/>
        <path d="M 265 169 L 292 199 L 306 112 Z" style="fill: rgb(114,131,128);"/>
        <path d="M 306 112 L 292 199 L 398 170 Z" style="fill: rgb(116,130,129);"/>
        <path d="M 993 167 L 949 98 L 885 171 Z" style="fill: rgb(139,148,183);"/>
        <path d="M 909 101 L 949 98 L 892 42 Z" style="fill: rgb(95,169,171);"/>
        <path d="M 319.16923076923075 300 L 333.5 300 L 362 262 L 317 253 Z" style="fill: rgb(92,152,165);"/>
        <path d="M 351.35483870967744 300 L 372.05 300 L 374 287 Z" style="fill: rgb(94,143,163);"/>
        <path d="M 236 21 L 306 112 L 321 59 Z" style="fill: rgb(77,142,111);"/>
        <path d="M 263.2857142857143 300 L 319.16923076923075 300 L 317 253 Z" style="fill: rgb(87,146,161);"/>
        <path d="M 263 131 L 265 169 L 306 112 Z" style="fill: rgb(110,128,120);"/>
        <path d="M 213 266 L 317 253 L 292 199 Z" style="fill: rgb(98,165,171);"/>
        <path d="M 917.9302325581396 300 L 945.3451327433628 300 L 960 228 L 897 255 Z" style="fill: rgb(111,179,230);"/>
        <path d="M 897 255 L 960 228 L 885 171 Z" style="fill: rgb(122,193,233);"/>
        <path d="M 1006 126 L 978 34 L 949 98 Z" style="fill: rgb(98,162,170);"/>
        <path d="M 949 98 L 978 34 L 892 42 Z" style="fill: rgb(111,164,176);"/>
        <path d="M 960 228 L 993 167 L 885 171 Z" style="fill: rgb(132,171,211);"/>
        <path d="M 874.2352941176471 300 L 911.5 300 L 897 255 Z" style="fill: rgb(110,171,226);"/>
        <path d="M 960 228 L 1028 240 L 993 167 Z" style="fill: rgb(122,182,226);"/>
        <path d="M 310.1808510638298 0 L 306.40277777777777 0 L 308 5 Z" style="fill: rgb(137,125,135);"/>
        <path d="M 308 5 L 236 21 L 321 59 Z" style="fill: rgb(114,134,124);"/>
        <path d="M 911.5 300 L 917.9302325581396 300 L 897 255 Z" style="fill: rgb(108,171,227);"/>
        <path d="M 993 167 L 1006 126 L 949 98 Z" style="fill: rgb(129,149,179);"/>
        <path d="M 296.2857142857143 0 L 231.88235294117646 0 L 236 21 L 308 5 Z" style="fill: rgb(143,123,138);"/>
        <path d="M 146 112 L 157 207 L 265 169 Z" style="fill: rgb(134,125,139);"/>
        <path d="M 1006 126 L 999 24 L 978 34 Z" style="fill: rgb(105,160,173);"/>
        <path d="M 926.5853658536586 0 L 978 34 L 987.3333333333334 0 Z" style="fill: rgb(161,146,197);"/>
        <path d="M 999 24 L 994.9024390243902 0 L 987.3333333333334 0 L 978 34 Z" style="fill: rgb(151,147,192);"/>
        <path d="M 306.40277777777777 0 L 296.2857142857143 0 L 308 5 Z" style="fill: rgb(140,124,137);"/>
        <path d="M 236 21 L 199 64 L 263 131 Z" style="fill: rgb(84,141,113);"/>
        <path d="M 202.2173913043478 0 L 199 0 L 199 64 L 236 21 Z" style="fill: rgb(130,128,132);"/>
        <path d="M 265 169 L 213 266 L 292 199 Z" style="fill: rgb(110,161,165);"/>
        <path d="M 994.9024390243902 0 L 999 24 L 1008.0666666666667 0 Z" style="fill: rgb(162,141,196);"/>
        <path d="M 1077.72 0 L 1008.0666666666667 0 L 999 24 Z" style="fill: rgb(160,139,195);"/>
        <path d="M 993 167 L 1048 188 L 1006 126 Z" style="fill: rgb(137,147,189);"/>
        <path d="M 1107 60 L 1081.4262295081967 0 L 1077.72 0 L 999 24 Z" style="fill: rgb(136,145,183);"/>
        <path d="M 1014 300 L 1030.857142857143 300 L 1028 240 L 960 228 Z" style="fill: rgb(110,176,229);"/>
        <path d="M 1014 300 L 960 228 L 945.3451327433628 300 Z" style="fill: rgb(106,167,225);"/>
        <path d="M 157 207 L 213 266 L 265 169 Z" style="fill: rgb(121,159,172);"/>
        <path d="M 231.88235294117646 0 L 202.2173913043478 0 L 236 21 Z" style="fill: rgb(150,120,142);"/>
        <path d="M 1028 240 L 1048 188 L 993 167 Z" style="fill: rgb(126,171,215);"/>
        <path d="M 213 266 L 221.5 300 L 263.2857142857143 300 L 317 253 Z" style="fill: rgb(99,149,167);"/>
        <path d="M 1094 268 L 1078 168 L 1048 188 Z" style="fill: rgb(121,173,220);"/>
        <path d="M 1094 268 L 1048 188 L 1028 240 Z" style="fill: rgb(113,183,232);"/>
        <path d="M 1048 188 L 1078 168 L 1006 126 Z" style="fill: rgb(136,145,188);"/>
        <path d="M 146 112 L 265 169 L 263 131 Z" style="fill: rgb(121,124,125);"/>
        <path d="M 221.5 300 L 213 266 L 201.51351351351352 300 Z" style="fill: rgb(108,141,169);"/>
        <path d="M 146 112 L 263 131 L 199 64 Z" style="fill: rgb(107,133,120);"/>
        <path d="M 146 112 L 199 64 L 116 31 Z" style="fill: rgb(107,135,122);"/>
        <path d="M 114 129 L 146 112 L 116 31 Z" style="fill: rgb(117,131,125);"/>
        <path d="M 157 207 L 169 271 L 213 266 Z" style="fill: rgb(123,156,179);"/>
        <path d="M 169 271 L 176.9855072463768 300 L 201.51351351351352 300 L 213 266 Z" style="fill: rgb(114,142,172);"/>
        <path d="M 1107 60 L 999 24 L 1006 126 Z" style="fill: rgb(94,159,168);"/>
        <path d="M 1138 171 L 1102 132 L 1078 168 Z" style="fill: rgb(134,137,183);"/>
        <path d="M 1078 168 L 1102 132 L 1006 126 Z" style="fill: rgb(132,139,178);"/>
        <path d="M 1102 132 L 1107 60 L 1006 126 Z" style="fill: rgb(110,149,171);"/>
        <path d="M 1030.857142857143 300 L 1058.5714285714287 300 L 1094 268 L 1028 240 Z" style="fill: rgb(106,167,225);"/>
        <path d="M 1102 132 L 1141 104 L 1107 60 Z" style="fill: rgb(104,147,168);"/>
        <path d="M 1086.4 300 L 1100 294 L 1094 268 L 1058.5714285714287 300 Z" style="fill: rgb(103,159,222);"/>
        <path d="M 157 207 L 102 244 L 169 271 Z" style="fill: rgb(133,156,184);"/>
        <path d="M 146 112 L 114 129 L 157 207 Z" style="fill: rgb(144,113,136);"/>
        <path d="M 193.96969696969697 0 L 116 31 L 199 64 L 199 0 Z" style="fill: rgb(136,126,135);"/>
        <path d="M 151 300 L 176.9855072463768 300 L 169 271 Z" style="fill: rgb(121,137,174);"/>
        <path d="M 110.25925925925927 0 L 116 31 L 193.96969696969697 0 Z" style="fill: rgb(163,113,149);"/>
        <path d="M 1097.5844155844156 300 L 1100 294 L 1086.4 300 Z" style="fill: rgb(102,158,221);"/>
        <path d="M 1094 268 L 1138 171 L 1078 168 Z" style="fill: rgb(122,166,215);"/>
        <path d="M 1190 232 L 1138 171 L 1094 268 Z" style="fill: rgb(111,177,229);"/>
        <path d="M 1138 171 L 1141 104 L 1102 132 Z" style="fill: rgb(126,135,175);"/>
        <path d="M 79 179 L 157 207 L 114 129 Z" style="fill: rgb(147,125,152);"/>
        <path d="M 79 179 L 102 244 L 157 207 Z" style="fill: rgb(145,150,179);"/>
        <path d="M 29 97 L 79 179 L 114 129 Z" style="fill: rgb(149,113,139);"/>
        <path d="M 57 75 L 114 129 L 116 31 Z" style="fill: rgb(117,132,126);"/>
        <path d="M 1157.6493506493507 0 L 1081.4262295081967 0 L 1107 60 Z" style="fill: rgb(146,136,187);"/>
        <path d="M 89 294 L 91.4375 300 L 151 300 L 169 271 Z" style="fill: rgb(128,135,177);"/>
        <path d="M 89 294 L 169 271 L 102 244 Z" style="fill: rgb(134,145,182);"/>
        <path d="M 24 258 L 89 294 L 102 244 Z" style="fill: rgb(145,142,187);"/>
        <path d="M 110.25925925925927 0 L 94.5 0 L 57 75 L 116 31 Z" style="fill: rgb(153,118,143);"/>
        <path d="M 0 77.425 L 29 97 L 57 75 L 0 58.111111111111114 Z" style="fill: rgb(135,126,134);"/>
        <path d="M 79 179 L 43 202 L 102 244 Z" style="fill: rgb(153,146,181);"/>
        <path d="M 1200 91.74025974025975 L 1200 73.9375 L 1186 63 L 1141 104 Z" style="fill: rgb(92,145,163);"/>
        <path d="M 1141 104 L 1186 63 L 1107 60 Z" style="fill: rgb(85,151,162);"/>
        <path d="M 1200 106.675 L 1200 91.74025974025975 L 1141 104 L 1138 171 Z" style="fill: rgb(117,136,170);"/>
        <path d="M 1186 63 L 1174.975 0 L 1157.6493506493507 0 L 1107 60 Z" style="fill: rgb(126,140,177);"/>
        <path d="M 1103.6363636363637 300 L 1162.1538461538462 300 L 1164 295 L 1100 294 Z" style="fill: rgb(100,153,219);"/>
        <path d="M 1100 294 L 1164 295 L 1094 268 Z" style="fill: rgb(103,159,221);"/>
        <path d="M 1103.6363636363637 300 L 1100 294 L 1097.5844155844156 300 Z" style="fill: rgb(101,155,220);"/>
        <path d="M 29 97 L 43 202 L 79 179 Z" style="fill: rgb(160,111,150);"/>
        <path d="M 91.4375 300 L 89 294 L 75.45161290322581 300 Z" style="fill: rgb(139,131,182);"/>
        <path d="M 1200 223.11111111111111 L 1190 232 L 1200 234.25 Z" style="fill: rgb(110,171,225);"/>
        <path d="M 1164 295 L 1190 232 L 1094 268 Z" style="fill: rgb(105,163,223);"/>
        <path d="M 25.34862385321101 0 L 57 75 L 94.5 0 Z" style="fill: rgb(174,106,155);"/>
        <path d="M 57 75 L 29 97 L 114 129 Z" style="fill: rgb(134,124,133);"/>
        <path d="M 1200 73.9375 L 1200 56.53846153846154 L 1186 63 Z" style="fill: rgb(92,145,163);"/>
        <path d="M 1174.975 0 L 1186 63 L 1200 56.53846153846154 L 1200 30.6 L 1182 0 Z" style="fill: rgb(127,136,177);"/>
        <path d="M 1200 184.42268041237114 L 1200 106.675 L 1138 171 Z" style="fill: rgb(131,125,175);"/>
        <path d="M 0 242.01388888888889 L 0 262.9811320754717 L 24 258 L 43 202 Z" style="fill: rgb(161,145,196);"/>
        <path d="M 43 202 L 24 258 L 102 244 Z" style="fill: rgb(153,152,193);"/>
        <path d="M 1200 265.54545454545456 L 1200 234.25 L 1190 232 L 1164 295 Z" style="fill: rgb(104,162,223);"/>
        <path d="M 1190 232 L 1200 223.11111111111111 L 1200 184.42268041237114 L 1138 171 Z" style="fill: rgb(120,157,209);"/>
        <path d="M 1200 0 L 1182 0 L 1200 30.6 Z" style="fill: rgb(153,124,189);"/>
        <path d="M 1175.9117647058824 300 L 1200 300 L 1200 265.54545454545456 L 1164 295 Z" style="fill: rgb(99,151,218);"/>
        <path d="M 0 188.11458333333334 L 0 242.01388888888889 L 43 202 Z" style="fill: rgb(167,143,193);"/>
        <path d="M 0 262.9811320754717 L 0 300 L 20.865671641791046 300 L 24 258 Z" style="fill: rgb(155,130,191);"/>
        <path d="M 24 258 L 20.865671641791046 300 L 75.45161290322581 300 L 89 294 Z" style="fill: rgb(146,131,186);"/>
        <path d="M 25.34862385321101 0 L 12.714285714285714 0 L 57 75 Z" style="fill: rgb(182,101,160);"/>
        <path d="M 1162.1538461538462 300 L 1175.9117647058824 300 L 1164 295 Z" style="fill: rgb(98,148,217);"/>
        <path d="M 0 123.17073170731707 L 0 188.11458333333334 L 43 202 L 29 97 Z" style="fill: rgb(167,105,153);"/>
        <path d="M 0 77.425 L 0 94.25675675675676 L 29 97 Z" style="fill: rgb(136,126,135);"/>
        <path d="M 0 94.25675675675676 L 0 123.17073170731707 L 29 97 Z" style="fill: rgb(155,111,143);"/>
        <path d="M 12.714285714285715 0 L 0 0 L 0 58.111111111111114 L 57 75 Z" style="fill: rgb(168,110,152);"/>
    </g>
</svg>